<?xml version="1.0" encoding="UTF-8"?>
<svg version="1.1" xmlns="http://www.w3.org/2000/svg" width="1080" height="542">
<path d="M0 0 C356.4 0 712.8 0 1080 0 C1080 178.86 1080 357.72 1080 542 C723.6 542 367.2 542 0 542 C0 363.14 0 184.28 0 0 Z " fill="#6500AA" transform="translate(0,0)"/>
<path d="M0 0 C148.5 0 297 0 450 0 C450 177.87 450 355.74 450 539 C264.21 539 78.42 539 -113 539 C-113 525.14 -113 511.28 -113 497 C-79.34 497 -45.68 497 -11 497 C-11 483.47 -11 469.94 -11 456 C-50.93 456 -90.86 456 -132 456 C-132 442.14 -132 428.28 -132 414 C-114.18 414 -96.36 414 -78 414 C-78 400.47 -78 386.94 -78 373 C-94.83 373 -111.66 373 -129 373 C-129 359.47 -129 345.94 -129 332 C-66.3 332 -3.6 332 61 332 C61 317.81 61 303.62 61 289 C-6.32 289 -73.64 289 -143 289 C-143 275.8 -143 262.6 -143 249 C-118.25 249 -93.5 249 -68 249 C-68 234.81 -68 220.62 -68 206 C-101 206 -134 206 -168 206 C-168 192.14 -168 178.28 -168 164 C-109.92 164 -51.84 164 8 164 C8 150.8 8 137.6 8 124 C-38.2 124 -84.4 124 -132 124 C-132 110.14 -132 96.28 -132 82 C-117.81 82 -103.62 82 -89 82 C-89 68.47 -89 54.94 -89 41 C-59.63 41 -30.26 41 0 41 C0 27.47 0 13.94 0 0 Z " fill="#140021" transform="translate(630,0)"/>
<path d="M0 0 C119.46 0 238.92 0 362 0 C362 13.53 362 27.06 362 41 C332.63 41 303.26 41 273 41 C273 54.53 273 68.06 273 82 C258.81 82 244.62 82 230 82 C230 95.86 230 109.72 230 124 C276.2 124 322.4 124 370 124 C370 137.2 370 150.4 370 164 C311.92 164 253.84 164 194 164 C194 177.86 194 191.72 194 206 C227 206 260 206 294 206 C294 220.19 294 234.38 294 249 C269.25 249 244.5 249 219 249 C219 262.2 219 275.4 219 289 C286.32 289 353.64 289 423 289 C423 303.19 423 317.38 423 332 C360.3 332 297.6 332 233 332 C233 345.53 233 359.06 233 373 C249.83 373 266.66 373 284 373 C284 386.53 284 400.06 284 414 C266.18 414 248.36 414 230 414 C230 427.86 230 441.72 230 456 C269.93 456 309.86 456 351 456 C351 469.53 351 483.06 351 497 C317.34 497 283.68 497 249 497 C249 510.86 249 524.72 249 539 C434.79 539 620.58 539 812 539 C812 539.99 812 540.98 812 542 C455.6 542 99.2 542 -268 542 C-268 541.01 -268 540.02 -268 539 C-161.08 539 -54.16 539 56 539 C56 525.14 56 511.28 56 497 C44.12 497 32.24 497 20 497 C20 483.47 20 469.94 20 456 C67.19 456 114.38 456 163 456 C163 442.14 163 428.28 163 414 C129.67 414 96.34 414 62 414 C62 400.47 62 386.94 62 373 C30.32 373 -1.36 373 -34 373 C-34 359.14 -34 345.28 -34 331 C5.6 331 45.2 331 86 331 C86 317.14 86 303.28 86 289 C99.53 289 113.06 289 127 289 C127 275.8 127 262.6 127 249 C121.32425781 249.01160156 115.64851563 249.02320313 109.80078125 249.03515625 C106.15950403 249.04027846 102.51823139 249.0450933 98.87695312 249.04882812 C93.12409519 249.0547572 87.37125347 249.06169474 81.6184082 249.07543945 C76.96938591 249.08647471 72.32038107 249.09231949 67.67134666 249.09487724 C65.91636061 249.09669498 64.16137528 249.10024207 62.40639687 249.10573006 C61.15653527 249.10947545 61.15653527 249.10947545 59.88142395 249.11329651 C59.16045941 249.11599832 58.43949488 249.11870012 57.69668293 249.1214838 C46.38732079 249.08916974 35.35016104 248.54048386 24 248 C24 220.28 24 192.56 24 164 C7.17 164 -9.66 164 -27 164 C-27 150.8 -27 137.6 -27 124 C-3.9 124 19.2 124 43 124 C43 110.14 43 96.28 43 82 C41.02 82 39.04 82 37 82 C37 68.47 37 54.94 37 41 C24.79 41 12.58 41 0 41 C0 27.47 0 13.94 0 0 Z " fill="#8700E1" transform="translate(268,0)"/>
<path d="M0 0 C66.99 0 133.98 0 203 0 C203 13.53 203 27.06 203 41 C159.44 41 115.88 41 71 41 C71 54.53 71 68.06 71 82 C115.22 82 159.44 82 205 82 C205 95.86 205 109.72 205 124 C153.85 124 102.7 124 50 124 C50 137.53 50 151.06 50 165 C58.91 165 67.82 165 77 165 C77 178.86 77 192.72 77 207 C81.95 207 86.9 207 92 207 C92 220.86 92 234.72 92 249 C98.93 249 105.86 249 113 249 C113 262.2 113 275.4 113 289 C94.85 289 76.7 289 58 289 C58 302.86 58 316.72 58 331 C57.01 331.33 56.02 331.66 55 332 C55 345.53 55 359.06 55 373 C82.72 373 110.44 373 139 373 C139 386.53 139 400.06 139 414 C162.76 414 186.52 414 211 414 C211 427.86 211 441.72 211 456 C179.32 456 147.64 456 115 456 C115 469.53 115 483.06 115 497 C101.14 497 87.28 497 73 497 C73 510.86 73 524.72 73 539 C48.91 539 24.82 539 0 539 C0 361.13 0 183.26 0 0 Z " fill="#560090" transform="translate(0,0)"/>
<path d="M0 0 C11.55 0 23.1 0 35 0 C35 13.86 35 27.72 35 42 C81.2 42 127.4 42 175 42 C175 55.2 175 68.4 175 82 C116.92 82 58.84 82 -1 82 C-1 96.19 -1 110.38 -1 125 C-29.05 125 -57.1 125 -86 125 C-86 111.14 -86 97.28 -86 83 C-96.89 83 -107.78 83 -119 83 C-119 69.47 -119 55.94 -119 42 C-79.73 42 -40.46 42 0 42 C0 28.14 0 14.28 0 0 Z " fill="#9800FE" transform="translate(463,82)"/>
<path d="M0 0 C21.45 0 42.9 0 65 0 C65 13.53 65 27.06 65 41 C77.21 41 89.42 41 102 41 C102 54.53 102 68.06 102 82 C103.98 82 105.96 82 108 82 C108 95.86 108 109.72 108 124 C73.02 124 38.04 124 2 124 C2 110.14 2 96.28 2 82 C-42.22 82 -86.44 82 -132 82 C-132 68.47 -132 54.94 -132 41 C-88.44 41 -44.88 41 0 41 C0 27.47 0 13.94 0 0 Z " fill="#6600AB" transform="translate(203,0)"/>
<path d="M0 0 C39.27 0 78.54 0 119 0 C119 13.53 119 27.06 119 41 C148.7 41 178.4 41 209 41 C209 54.86 209 68.72 209 83 C126.17 83 43.34 83 -42 83 C-42 69.14 -42 55.28 -42 41 C-28.14 41 -14.28 41 0 41 C0 27.47 0 13.94 0 0 Z " fill="#6500AA" transform="translate(115,456)"/>
<path d="M0 0 C27.06 0 54.12 0 82 0 C82 13.2 82 26.4 82 40 C68.47 40 54.94 40 41 40 C41 53.86 41 67.72 41 82 C1.4 82 -38.2 82 -79 82 C-79 95.86 -79 109.72 -79 124 C-47.32 124 -15.64 124 17 124 C17 124.33 17 124.66 17 125 C-40.75 125 -98.5 125 -158 125 C-158 110.81 -158 96.62 -158 82 C-145.13 82 -132.26 82 -119 82 C-119 68.14 -119 54.28 -119 40 C-79.73 40 -40.46 40 0 40 C0 26.8 0 13.6 0 0 Z " fill="#7600C5" transform="translate(313,249)"/>
<path d="M0 0 C29.37 0 58.74 0 89 0 C89 13.2 89 26.4 89 40 C105.83 40 122.66 40 140 40 C140 67.72 140 95.44 140 124 C146.93 124 153.86 124 161 124 C161 124.33 161 124.66 161 125 C112.82 125 64.64 125 15 125 C15 110.81 15 96.62 15 82 C21.6 82 28.2 82 35 82 C35 68.47 35 54.94 35 41 C23.45 41 11.9 41 0 41 C0 27.47 0 13.94 0 0 Z " fill="#7600C5" transform="translate(152,124)"/>
<path d="M0 0 C72.6 0 145.2 0 220 0 C220 13.86 220 27.72 220 42 C172.81 42 125.62 42 77 42 C77 55.53 77 69.06 77 83 C59.18 83 41.36 83 23 83 C23 69.47 23 55.94 23 42 C15.41 42 7.82 42 0 42 C0 28.14 0 14.28 0 0 Z " fill="#7700C6" transform="translate(211,414)"/>
<path d="M0 0 C77.88 0 155.76 0 236 0 C236 13.53 236 27.06 236 41 C158.12 41 80.24 41 0 41 C0 27.47 0 13.94 0 0 Z " fill="#9900FF" transform="translate(455,290)"/>
<path d="M0 0 C61.38 0 122.76 0 186 0 C186 13.53 186 27.06 186 41 C124.62 41 63.24 41 0 41 C0 27.47 0 13.94 0 0 Z " fill="#9900FF" transform="translate(444,0)"/>
<path d="M0 0 C18.81 0 37.62 0 57 0 C57 13.53 57 27.06 57 41 C66.24 41 75.48 41 85 41 C85 54.86 85 68.72 85 83 C58.93 83 32.86 83 6 83 C6 69.14 6 55.28 6 41 C4.02 41 2.04 41 0 41 C0 27.47 0 13.94 0 0 Z " fill="#7700C6" transform="translate(305,41)"/>
<path d="M0 0 C29.37 0 58.74 0 89 0 C89 13.2 89 26.4 89 40 C59.63 40 30.26 40 0 40 C0 26.8 0 13.6 0 0 Z " fill="#9800FE" transform="translate(530,457)"/>
<path d="M0 0 C356.4 0 712.8 0 1080 0 C1080 0.99 1080 1.98 1080 3 C723.6 3 367.2 3 0 3 C0 2.01 0 1.02 0 0 Z " fill="#FFFFFF" transform="translate(0,539)"/>
<path d="M0 0 C21.45 0 42.9 0 65 0 C65 13.86 65 27.72 65 42 C43.55 42 22.1 42 0 42 C0 28.14 0 14.28 0 0 Z " fill="#7700C6" transform="translate(324,497)"/>
<path d="M0 0 C4.08949139 2.55593212 6.81576462 5.50652923 9 9.875 C9.13530308 12.40750047 9.21264386 14.91117798 9.23828125 17.4453125 C9.246353 18.20037079 9.25442474 18.95542908 9.26274109 19.73336792 C9.27658466 21.33556828 9.2873056 22.93779817 9.29516602 24.54003906 C9.31228851 26.96998694 9.35615797 29.39854148 9.40039062 31.828125 C9.55327513 46.70452715 9.55327513 46.70452715 5 52.875 C-0.21817474 57.33974844 -6.64570094 58.68600123 -13.3828125 58.37109375 C-18.84203578 57.33628575 -23.41739873 54.06465315 -27 49.875 C-29.08943435 45.70475544 -29.33563075 41.81192166 -29.37109375 37.23046875 C-29.38012222 36.50185135 -29.3891507 35.77323395 -29.39845276 35.02253723 C-29.41291262 33.48536254 -29.42183137 31.9481269 -29.42553711 30.41088867 C-29.43741345 28.07949072 -29.48661567 25.75076049 -29.53710938 23.41992188 C-29.68436519 9.92763026 -29.68436519 9.92763026 -25.37133789 4.26489258 C-18.72494784 -2.47142549 -8.78909633 -3.21881379 0 0 Z " fill="#F9F8F9" transform="translate(907,175.125)"/>
<path d="M0 0 C24 0 24 0 32 4 C37.99737336 10.54976301 37.71342441 17.51705001 37.54199219 25.94580078 C37.49995104 28.12754093 37.50094907 30.3062019 37.5078125 32.48828125 C37.41900287 44.36148429 37.41900287 44.36148429 34 50 C23.87841381 59.89666205 15.00400794 57 0 57 C0 38.19 0 19.38 0 0 Z " fill="#FCFCFC" transform="translate(943,175)"/>
<path d="M0 0 C28.75 0 28.75 0 36.625 7.5 C38.89120842 13.26853051 39.4212433 20.15684209 37.234375 26.0703125 C35.38741869 28.9873308 32.94633383 31.2321997 30 33 C29.34 33 28.68 33 28 33 C28.33322266 33.68626465 28.66644531 34.3725293 29.00976562 35.07958984 C30.51054322 38.17612431 32.00533994 41.27550837 33.5 44.375 C34.02464844 45.45523438 34.54929687 46.53546875 35.08984375 47.6484375 C35.58613281 48.6796875 36.08242188 49.7109375 36.59375 50.7734375 C37.05458984 51.72653809 37.51542969 52.67963867 37.99023438 53.66162109 C39 56 39 56 39 58 C35.37 58 31.74 58 28 58 C27.35933594 56.42347656 26.71867188 54.84695313 26.05859375 53.22265625 C25.18634633 51.16865426 24.31256847 49.11530172 23.4375 47.0625 C22.81004883 45.50112305 22.81004883 45.50112305 22.16992188 43.90820312 C21.74130859 42.91884766 21.31269531 41.92949219 20.87109375 40.91015625 C20.48880615 39.99371338 20.10651855 39.07727051 19.71264648 38.13305664 C17.71350032 35.14551884 17.71350032 35.14551884 11 35 C11 42.59 11 50.18 11 58 C7.37 58 3.74 58 0 58 C0 38.86 0 19.72 0 0 Z " fill="#F3F2F4" transform="translate(687,399)"/>
<path d="M0 0 C28.31180401 0 28.31180401 0 34.15625 4.75390625 C34.5996875 5.35074219 35.043125 5.94757813 35.5 6.5625 C35.9640625 7.16191406 36.428125 7.76132812 36.90625 8.37890625 C40.09144283 13.09981705 39.51902981 18.49251697 39 24 C36.84829659 28.46279226 34.09499214 31.2358803 30 34 C25.95634881 35.26686622 21.94465348 35.11030111 17.75 35.0625 C13.91375 35.0315625 13.91375 35.0315625 10 35 C10 42.59 10 50.18 10 58 C6.7 58 3.4 58 0 58 C0 38.86 0 19.72 0 0 Z " fill="#F9F9F9" transform="translate(815,399)"/>
<path d="M0 0 C28.40681818 0 28.40681818 0 34.05859375 4.71875 C34.74115234 5.60046875 34.74115234 5.60046875 35.4375 6.5 C35.91058594 7.0878125 36.38367187 7.675625 36.87109375 8.28125 C39.79758484 12.73680736 39.65202984 17.88232395 39 23 C37.36028442 27.49772452 34.74297248 30.92823697 30.6875 33.5 C24.36089624 36.29006897 16.68929589 35.22297653 10 35 C10 42.59 10 50.18 10 58 C6.7 58 3.4 58 0 58 C0 38.86 0 19.72 0 0 Z " fill="#F9F9FA" transform="translate(1007,287)"/>
<path d="M0 0 C4.62 0 9.24 0 14 0 C19.65945663 19.15508398 24.76319849 38.47748322 29 58 C25.37 58 21.74 58 18 58 C16 48.5 16 48.5 16 44 C10.06 44 4.12 44 -2 44 C-2.12375 45.381875 -2.2475 46.76375 -2.375 48.1875 C-2.76401643 51.7619408 -3.41947853 54.73358896 -5 58 C-8.3 58 -11.6 58 -15 58 C-13.50996659 51.15714515 -11.88715255 44.35617571 -10.1875 37.5625 C-9.79546387 35.99447632 -9.79546387 35.99447632 -9.39550781 34.39477539 C-7.08473574 25.21820934 -4.59707497 16.0991721 -2 7 C-1.80728516 6.32469238 -1.61457031 5.64938477 -1.41601562 4.95361328 C-0.94455312 3.30225382 -0.47235737 1.65110372 0 0 Z " fill="#F5F4F5" transform="translate(954,399)"/>
<path d="M0 0 C4.62 0 9.24 0 14 0 C19.65945663 19.15508398 24.76319849 38.47748322 29 58 C25.37 58 21.74 58 18 58 C16 48.5 16 48.5 16 44 C10.06 44 4.12 44 -2 44 C-2.12375 45.381875 -2.2475 46.76375 -2.375 48.1875 C-2.76401643 51.7619408 -3.41947853 54.73358896 -5 58 C-8.3 58 -11.6 58 -15 58 C-13.50996659 51.15714515 -11.88715255 44.35617571 -10.1875 37.5625 C-9.79546387 35.99447632 -9.79546387 35.99447632 -9.39550781 34.39477539 C-7.08473574 25.21820934 -4.59707497 16.0991721 -2 7 C-1.80728516 6.32469238 -1.61457031 5.64938477 -1.41601562 4.95361328 C-0.94455312 3.30225382 -0.47235737 1.65110372 0 0 Z " fill="#F5F4F5" transform="translate(954,62)"/>
<path d="M0 0 C10.23 0 20.46 0 31 0 C31 13.2 31 26.4 31 40 C20.77 40 10.54 40 0 40 C0 26.8 0 13.6 0 0 Z " fill="#9900FF" transform="translate(521,374)"/>
<path d="M0 0 C11.55 0 23.1 0 35 0 C35 2.64 35 5.28 35 8 C26.75 8 18.5 8 10 8 C10 12.95 10 17.9 10 23 C17.59 23 25.18 23 33 23 C33 25.97 33 28.94 33 32 C25.41 32 17.82 32 10 32 C10 37.28 10 42.56 10 48 C18.58 48 27.16 48 36 48 C36 50.97 36 53.94 36 57 C24.12 57 12.24 57 0 57 C0 38.19 0 19.38 0 0 Z " fill="#FBFAFB" transform="translate(880,400)"/>
<path d="M0 0 C11.55 0 23.1 0 35 0 C35 2.64 35 5.28 35 8 C26.75 8 18.5 8 10 8 C10 12.95 10 17.9 10 23 C17.59 23 25.18 23 33 23 C33 25.97 33 28.94 33 32 C25.41 32 17.82 32 10 32 C10 37.28 10 42.56 10 48 C18.58 48 27.16 48 36 48 C36 50.97 36 53.94 36 57 C24.12 57 12.24 57 0 57 C0 38.19 0 19.38 0 0 Z " fill="#FBFAFB" transform="translate(752,400)"/>
<path d="M0 0 C11.55 0 23.1 0 35 0 C35 2.64 35 5.28 35 8 C26.75 8 18.5 8 10 8 C10 12.95 10 17.9 10 23 C17.59 23 25.18 23 33 23 C33 25.97 33 28.94 33 32 C25.41 32 17.82 32 10 32 C10 37.28 10 42.56 10 48 C18.58 48 27.16 48 36 48 C36 50.97 36 53.94 36 57 C24.12 57 12.24 57 0 57 C0 38.19 0 19.38 0 0 Z " fill="#FBFAFB" transform="translate(880,288)"/>
<path d="M0 0 C11.55 0 23.1 0 35 0 C35 2.64 35 5.28 35 8 C26.75 8 18.5 8 10 8 C10 12.95 10 17.9 10 23 C17.59 23 25.18 23 33 23 C33 25.97 33 28.94 33 32 C25.41 32 17.82 32 10 32 C10 37.28 10 42.56 10 48 C18.58 48 27.16 48 36 48 C36 50.97 36 53.94 36 57 C24.12 57 12.24 57 0 57 C0 38.19 0 19.38 0 0 Z " fill="#FBFAFB" transform="translate(880,63)"/>
<path d="M0 0 C4.24936004 2.41247531 7.41028767 4.81661855 10 9 C10.25 12.3125 10.25 12.3125 10 15 C6.62318109 15.28509728 3.36455637 15.46806431 0 15 C-1 13.33333333 -2 11.66666667 -3 10 C-6.37245903 9.41422718 -9.62384034 9.44985391 -13 10 C-15.280721 11.87424716 -15.280721 11.87424716 -15.375 14.875 C-14.90700167 18.77498605 -14.01189535 19.55966895 -11 22 C-8.01892155 23.08219534 -8.01892155 23.08219534 -4.75 23.8125 C2.47354861 25.87637103 7.52057132 28.97092839 11.5 35.4375 C12.74218923 41.8037198 12.64923702 46.52614447 9 52 C2.65636129 58.06782833 -2.39520586 59.47495008 -10.98828125 59.31640625 C-16.65452184 58.72112027 -20.35777843 56.55800508 -24.4375 52.6875 C-26.32383385 49.44300578 -26.70862852 46.71498635 -27 43 C-23.62153287 42.71476356 -20.36718931 42.54306316 -17 43 C-15 45.4375 -15 45.4375 -14 48 C-10.54344326 49.72827837 -6.77956563 49.48335475 -3 49 C-0.3284596 47.49720824 -0.3284596 47.49720824 1 45 C1.66666667 42.5 1.66666667 42.5 1 40 C-1.91592813 36.44065111 -4.49816971 35.24734095 -8.875 34 C-16.03886285 31.76020347 -20.60982587 29.34136264 -25 23 C-26.85606957 17.43179128 -26.91152916 11.96890298 -24.4375 6.625 C-17.50556135 -0.84016469 -9.93641332 -1.45776938 0 0 Z " fill="#F8F8F8" transform="translate(777,287)"/>
<path d="M0 0 C11.55 0 23.1 0 35 0 C35 2.64 35 5.28 35 8 C26.75 8 18.5 8 10 8 C10 12.95 10 17.9 10 23 C17.59 23 25.18 23 33 23 C33 25.97 33 28.94 33 32 C25.41 32 17.82 32 10 32 C10 37.28 10 42.56 10 48 C18.25 48 26.5 48 35 48 C35 50.97 35 53.94 35 57 C23.45 57 11.9 57 0 57 C0 38.19 0 19.38 0 0 Z " fill="#FBFBFB" transform="translate(944,288)"/>
<path d="M0 0 C11.55 0 23.1 0 35 0 C35 2.64 35 5.28 35 8 C26.75 8 18.5 8 10 8 C10 12.95 10 17.9 10 23 C17.59 23 25.18 23 33 23 C33 25.97 33 28.94 33 32 C25.41 32 17.82 32 10 32 C10 37.28 10 42.56 10 48 C18.25 48 26.5 48 35 48 C35 50.97 35 53.94 35 57 C23.45 57 11.9 57 0 57 C0 38.19 0 19.38 0 0 Z " fill="#FBFBFB" transform="translate(1008,175)"/>
<path d="M0 0 C8.91 0 17.82 0 27 0 C27 13.53 27 27.06 27 41 C18.09 41 9.18 41 0 41 C0 27.47 0 13.94 0 0 Z " fill="#9900FF" transform="translate(534,207)"/>
<path d="M0 0 C1.30453125 -0.03738281 2.6090625 -0.07476562 3.953125 -0.11328125 C9.65369483 0.52598018 12.59704338 3.15954338 16.5625 7.125 C18.99162956 10.66458879 19.49550115 13.07085255 19.75 17.3125 C16.45 17.3125 13.15 17.3125 9.75 17.3125 C9.29625 16.343125 8.8425 15.37375 8.375 14.375 C7.09213779 11.24170418 7.09213779 11.24170418 4.75 10.3125 C2.64145964 10.0772268 2.64145964 10.0772268 0.3125 10.0625 C-0.86119141 10.02382812 -0.86119141 10.02382812 -2.05859375 9.984375 C-4.26167668 10.15536883 -4.26167668 10.15536883 -5.85986328 11.38598633 C-7.98281554 14.32806857 -7.65666815 16.87572864 -7.68359375 20.46484375 C-7.69145653 21.5096566 -7.69145653 21.5096566 -7.69947815 22.57557678 C-7.70589525 24.04735991 -7.70456529 25.51919434 -7.69604492 26.9909668 C-7.68754141 29.23905156 -7.71628321 31.48458866 -7.74804688 33.73242188 C-7.74965925 35.16406174 -7.74908066 36.59570609 -7.74609375 38.02734375 C-7.74794678 39.32792725 -7.7497998 40.62851074 -7.75170898 41.96850586 C-7.51856688 45.37528067 -7.51856688 45.37528067 -5.36206055 47.75268555 C-3.37656963 49.49436954 -3.37656963 49.49436954 -0.9609375 49.5546875 C-0.19007813 49.43351562 0.58078125 49.31234375 1.375 49.1875 C2.15101563 49.08179688 2.92703125 48.97609375 3.7265625 48.8671875 C5.95736945 48.43513342 5.95736945 48.43513342 7.75 46.3125 C8.08 44.9925 8.41 43.6725 8.75 42.3125 C12.05 42.3125 15.35 42.3125 18.75 42.3125 C18.42386303 48.61781475 17.5523032 51.82339048 12.75 56.3125 C6.99930432 59.76291741 1.36854646 60.16834652 -5.25 59.3125 C-10.60234333 57.65327357 -14.19167165 55.08349223 -17.25 50.3125 C-18.47712575 46.63112275 -18.45065023 43.19221668 -18.48828125 39.35546875 C-18.496353 38.57488602 -18.50442474 37.79430328 -18.51274109 36.99006653 C-18.5265632 35.33837086 -18.53729373 33.68664685 -18.54516602 32.03491211 C-18.55668586 30.35025636 -18.57713795 28.66563711 -18.60668945 26.98120117 C-18.64946131 24.54320547 -18.66554771 22.10629354 -18.67578125 19.66796875 C-18.69328934 18.92089157 -18.71079742 18.17381439 -18.72883606 17.40409851 C-18.70742836 12.20423887 -17.51636911 9.31981818 -14.25 5.3125 C-9.27112468 0.92634793 -6.63549939 0.12360244 0 0 Z " fill="#F6F6F7" transform="translate(833.25,173.6875)"/>
<path d="M0 0 C13.86 0 27.72 0 42 0 C42 3.3 42 6.6 42 10 C36.72 10 31.44 10 26 10 C26 25.84 26 41.68 26 58 C22.7 58 19.4 58 16 58 C16 42.16 16 26.32 16 10 C10.72 10 5.44 10 0 10 C0 6.7 0 3.4 0 0 Z " fill="#F7F6F7" transform="translate(1004,399)"/>
<path d="M0 0 C13.86 0 27.72 0 42 0 C42 3.3 42 6.6 42 10 C36.72 10 31.44 10 26 10 C26 25.84 26 41.68 26 58 C22.7 58 19.4 58 16 58 C16 42.16 16 26.32 16 10 C10.72 10 5.44 10 0 10 C0 6.7 0 3.4 0 0 Z " fill="#F7F6F7" transform="translate(1004,62)"/>
<path d="M0 0 C3.3 0 6.6 0 10 0 C10 16.17 10 32.34 10 49 C18.25 49 26.5 49 35 49 C35 51.97 35 54.94 35 58 C23.45 58 11.9 58 0 58 C0 38.86 0 19.72 0 0 Z " fill="#FBFBFB" transform="translate(817,287)"/>
<path d="M0 0 C0.845625 0.02191406 1.69125 0.04382813 2.5625 0.06640625 C3.408125 0.06511719 4.25375 0.06382812 5.125 0.0625 C8.42199815 0.82862938 9.48471752 1.96359057 11.5625 4.62890625 C12.09594727 7.94116211 12.09594727 7.94116211 12.12890625 11.84375 C12.13820412 12.88288292 12.13820412 12.88288292 12.14768982 13.94300842 C12.15477657 15.40461831 12.15163373 16.86630912 12.13891602 18.32788086 C12.12506035 20.55669805 12.15911125 22.78130373 12.19726562 25.00976562 C12.19821705 26.43359477 12.19635671 27.85742914 12.19140625 29.28125 C12.19213135 30.57023193 12.19285645 31.85921387 12.19360352 33.18725586 C11.40824312 37.47012841 9.90925128 38.93781153 6.5625 41.62890625 C4.5 42.29296875 4.5 42.29296875 2.5625 42.25390625 C1.923125 42.26679688 1.28375 42.2796875 0.625 42.29296875 C-2.68978421 41.22570868 -4.2361478 39.27909081 -6.4375 36.62890625 C-7.06860352 33.29492188 -7.06860352 33.29492188 -7.06640625 29.53515625 C-7.06881821 28.86601196 -7.07123016 28.19686768 -7.07371521 27.50744629 C-7.07273979 26.0988164 -7.05941848 24.69014674 -7.03442383 23.28173828 C-7.00008798 21.13440818 -7.01377926 18.99119376 -7.03320312 16.84375 C-7.02630411 15.4700347 -7.01663119 14.09632994 -7.00390625 12.72265625 C-6.98759155 10.86157227 -6.98759155 10.86157227 -6.97094727 8.96289062 C-6.25414531 4.48296043 -4.58693904 1.18348908 0 0 Z " fill="#170424" transform="translate(894.4375,182.37109375)"/>
<path d="M0 0 C12 0 12 0 15.21875 1.65625 C18.10803198 7.07998987 17.64000334 12.4607652 17.5 18.5 C17.50386719 20.33498047 17.50386719 20.33498047 17.5078125 22.20703125 C17.39435387 32.58849582 17.39435387 32.58849582 14 37 C10 39 10 39 0 39 C0 26.13 0 13.26 0 0 Z " fill="#150222" transform="translate(953,184)"/>
<path d="M0 0 C13.00552486 -0.60773481 13.00552486 -0.60773481 17.375 2.0625 C19.45241381 5.81782496 19.74295029 7.76518334 19 12 C16.89326391 16.45655711 16.89326391 16.45655711 14 18 C9.21765962 18.51452133 4.83483006 18.27111197 0 18 C0 12.06 0 6.12 0 0 Z " fill="#1A0827" transform="translate(825,408)"/>
<path d="M0 0 C12.70613183 -0.71249337 12.70613183 -0.71249337 16.04296875 1.125 C18.20691585 3.5618202 18.98138235 5.89863721 19.5625 9.0625 C18.86562979 12.70171111 17.60323039 14.39676961 15 17 C10.09931037 18.63356321 5.14261524 18.05529694 0 18 C0 12.06 0 6.12 0 0 Z " fill="#180524" transform="translate(1017,296)"/>
<path d="M0 0 C12.03647687 -0.43505338 12.03647687 -0.43505338 16 3 C17.59251643 6.18503287 17.39129761 9.5332405 17 13 C15.25746655 16.23613354 14.52814056 16.82395315 11 18 C7.32893957 18.13281695 3.67480286 18.04323297 0 18 C0 12.06 0 6.12 0 0 Z " fill="#170323" transform="translate(698,408)"/>
<path d="M0 0 C0.66 0 1.32 0 2 0 C2.83862315 3.60295699 3.66998677 7.20755065 4.5 10.8125 C4.73847656 11.83666016 4.97695313 12.86082031 5.22265625 13.91601562 C5.44824219 14.89892578 5.67382812 15.88183594 5.90625 16.89453125 C6.11572266 17.80050049 6.32519531 18.70646973 6.54101562 19.63989258 C7 22 7 22 7 25 C3.04 25 -0.92 25 -5 25 C-4.37392048 19.20052651 -3.32599062 13.66190169 -1.9375 8 C-1.75123047 7.22527344 -1.56496094 6.45054687 -1.37304688 5.65234375 C-0.91923822 3.76729241 -0.46017508 1.8835073 0 0 Z " fill="#1F0D2B" transform="translate(960,410)"/>
<path d="M0 0 C0.66 0 1.32 0 2 0 C2.83862315 3.60295699 3.66998677 7.20755065 4.5 10.8125 C4.73847656 11.83666016 4.97695313 12.86082031 5.22265625 13.91601562 C5.44824219 14.89892578 5.67382812 15.88183594 5.90625 16.89453125 C6.11572266 17.80050049 6.32519531 18.70646973 6.54101562 19.63989258 C7 22 7 22 7 25 C3.04 25 -0.92 25 -5 25 C-4.37392048 19.20052651 -3.32599062 13.66190169 -1.9375 8 C-1.75123047 7.22527344 -1.56496094 6.45054688 -1.37304688 5.65234375 C-0.91923822 3.76729241 -0.46017508 1.8835073 0 0 Z " fill="#1F0D2B" transform="translate(960,73)"/>
</svg>
